<svg xmlns="http://www.w3.org/2000/svg" width="33.28" height="33.28" viewBox="0 0 33.28 33.28">
  <path id="Icon_awesome-linkedin" data-name="Icon awesome-linkedin" d="M30.9,2.25H2.37A2.387,2.387,0,0,0,0,4.649V33.131a2.387,2.387,0,0,0,2.37,2.4H30.9a2.394,2.394,0,0,0,2.377-2.4V4.649A2.394,2.394,0,0,0,30.9,2.25ZM10.058,30.776H5.126V14.893h4.94V30.776ZM7.592,12.724a2.86,2.86,0,1,1,2.86-2.86A2.861,2.861,0,0,1,7.592,12.724ZM28.548,30.776H23.615V23.05c0-1.842-.037-4.212-2.563-4.212-2.57,0-2.964,2.006-2.964,4.078v7.859H13.156V14.893h4.732v2.169h.067A5.2,5.2,0,0,1,22.627,14.5c4.992,0,5.921,3.291,5.921,7.57Z" transform="translate(0 -2.25)" fill="#fff"/>
</svg>
